<svg width="150" height="40" viewBox="0 0 150 40" fill="none" xmlns="http://www.w3.org/2000/svg">
<rect width="59" height="40" rx="6" fill="url(#paint0_linear_1150_411)"/>
<path d="M43.088 33.36C41.072 33.36 39.128 32.964 37.256 32.172C35.384 31.38 33.728 30.264 32.288 28.824L34.592 26.16C35.96 27.504 37.352 28.5 38.768 29.148C40.208 29.796 41.708 30.12 43.268 30.12C44.492 30.12 45.56 29.952 46.472 29.616C47.408 29.256 48.128 28.752 48.632 28.104C49.136 27.456 49.388 26.724 49.388 25.908C49.388 24.78 48.992 23.916 48.2 23.316C47.408 22.716 46.1 22.26 44.276 21.948L40.064 21.264C37.76 20.856 36.032 20.112 34.88 19.032C33.752 17.952 33.188 16.512 33.188 14.712C33.188 13.272 33.572 12.012 34.34 10.932C35.108 9.828 36.188 8.976 37.58 8.376C38.996 7.776 40.628 7.476 42.476 7.476C44.3 7.476 46.088 7.776 47.84 8.376C49.616 8.952 51.212 9.792 52.628 10.896L50.54 13.776C47.828 11.712 45.08 10.68 42.296 10.68C41.192 10.68 40.232 10.836 39.416 11.148C38.6 11.46 37.964 11.904 37.508 12.48C37.052 13.032 36.824 13.68 36.824 14.424C36.824 15.456 37.172 16.248 37.868 16.8C38.564 17.328 39.716 17.712 41.324 17.952L45.392 18.636C48.056 19.068 50.012 19.848 51.26 20.976C52.508 22.104 53.132 23.652 53.132 25.62C53.132 27.156 52.712 28.512 51.872 29.688C51.032 30.84 49.856 31.74 48.344 32.388C46.832 33.036 45.08 33.36 43.088 33.36ZM63.0188 33V11.148H54.1628V7.8H75.6548V11.148H66.7988V33H63.0188ZM89.1191 33.396C87.2951 33.396 85.5911 33.072 84.0071 32.424C82.4231 31.752 81.0191 30.828 79.7951 29.652C78.5951 28.452 77.6591 27.072 76.9871 25.512C76.3391 23.928 76.0151 22.224 76.0151 20.4C76.0151 18.576 76.3391 16.884 76.9871 15.324C77.6591 13.74 78.5951 12.36 79.7951 11.184C81.0191 9.984 82.4231 9.06 84.0071 8.412C85.5911 7.74 87.2951 7.404 89.1191 7.404C90.9431 7.404 92.6471 7.74 94.2311 8.412C95.8391 9.06 97.2431 9.984 98.4431 11.184C99.6431 12.36 100.579 13.74 101.251 15.324C101.923 16.884 102.259 18.576 102.259 20.4C102.259 22.224 101.923 23.928 101.251 25.512C100.579 27.072 99.6431 28.452 98.4431 29.652C97.2431 30.828 95.8391 31.752 94.2311 32.424C92.6471 33.072 90.9431 33.396 89.1191 33.396ZM89.1551 29.904C90.4511 29.904 91.6511 29.664 92.7551 29.184C93.8831 28.704 94.8671 28.044 95.7071 27.204C96.5471 26.34 97.2071 25.332 97.6871 24.18C98.1671 23.004 98.4071 21.744 98.4071 20.4C98.4071 19.032 98.1671 17.772 97.6871 16.62C97.2071 15.468 96.5471 14.472 95.7071 13.632C94.8671 12.768 93.8831 12.096 92.7551 11.616C91.6511 11.136 90.4511 10.896 89.1551 10.896C87.8351 10.896 86.6111 11.136 85.4831 11.616C84.3551 12.096 83.3711 12.768 82.5311 13.632C81.6911 14.472 81.0311 15.468 80.5511 16.62C80.0951 17.772 79.8671 19.032 79.8671 20.4C79.8671 21.744 80.0951 23.004 80.5511 24.18C81.0311 25.332 81.6911 26.34 82.5311 27.204C83.3711 28.044 84.3551 28.704 85.4831 29.184C86.6111 29.664 87.8351 29.904 89.1551 29.904ZM106.24 33V7.8H117.652C119.332 7.8 120.796 8.112 122.044 8.736C123.316 9.36 124.3 10.236 124.996 11.364C125.716 12.468 126.076 13.764 126.076 15.252C126.076 16.908 125.608 18.336 124.672 19.536C123.736 20.736 122.476 21.6 120.892 22.128L126.508 33H122.332L117.112 22.668H110.02V33H106.24ZM110.02 19.5H117.364C118.852 19.5 120.04 19.128 120.928 18.384C121.84 17.616 122.296 16.584 122.296 15.288C122.296 14.04 121.84 13.032 120.928 12.264C120.04 11.496 118.852 11.112 117.364 11.112H110.02V19.5ZM129.97 33V7.8H148.546V11.112H133.75V18.672H143.47V21.876H133.75V29.688H148.69V33H129.97Z" fill="#0C2146"/>
<path d="M17.58 33.396C15.756 33.396 14.052 33.072 12.468 32.424C10.884 31.752 9.48 30.828 8.256 29.652C7.056 28.452 6.12 27.072 5.448 25.512C4.8 23.928 4.476 22.224 4.476 20.4C4.476 18.576 4.8 16.884 5.448 15.324C6.12 13.74 7.056 12.36 8.256 11.184C9.48 9.984 10.884 9.06 12.468 8.412C14.052 7.74 15.756 7.404 17.58 7.404C19.404 7.404 21.108 7.74 22.692 8.412C24.3 9.06 25.704 9.984 26.904 11.184C28.104 12.36 29.04 13.74 29.712 15.324C30.384 16.884 30.72 18.576 30.72 20.4C30.72 22.224 30.384 23.928 29.712 25.512C29.04 27.072 28.104 28.452 26.904 29.652C25.704 30.828 24.3 31.752 22.692 32.424C21.108 33.072 19.404 33.396 17.58 33.396ZM17.616 29.904C18.912 29.904 20.112 29.664 21.216 29.184C22.344 28.704 23.328 28.044 24.168 27.204C25.008 26.34 25.668 25.332 26.148 24.18C26.628 23.004 26.868 21.744 26.868 20.4C26.868 19.032 26.628 17.772 26.148 16.62C25.668 15.468 25.008 14.472 24.168 13.632C23.328 12.768 22.344 12.096 21.216 11.616C20.112 11.136 18.912 10.896 17.616 10.896C16.296 10.896 15.072 11.136 13.944 11.616C12.816 12.096 11.832 12.768 10.992 13.632C10.152 14.472 9.492 15.468 9.012 16.62C8.556 17.772 8.328 19.032 8.328 20.4C8.328 21.744 8.556 23.004 9.012 24.18C9.492 25.332 10.152 26.34 10.992 27.204C11.832 28.044 12.816 28.704 13.944 29.184C15.072 29.664 16.296 29.904 17.616 29.904ZM43.2325 33.36C41.2165 33.36 39.2725 32.964 37.4005 32.172C35.5285 31.38 33.8725 30.264 32.4325 28.824L34.7365 26.16C36.1045 27.504 37.4965 28.5 38.9125 29.148C40.3525 29.796 41.8525 30.12 43.4125 30.12C44.6365 30.12 45.7045 29.952 46.6165 29.616C47.5525 29.256 48.2725 28.752 48.7765 28.104C49.2805 27.456 49.5325 26.724 49.5325 25.908C49.5325 24.78 49.1365 23.916 48.3445 23.316C47.5525 22.716 46.2445 22.26 44.4205 21.948L40.2085 21.264C37.9045 20.856 36.1765 20.112 35.0245 19.032C33.8965 17.952 33.3325 16.512 33.3325 14.712C33.3325 13.272 33.7165 12.012 34.4845 10.932C35.2525 9.828 36.3325 8.976 37.7245 8.376C39.1405 7.776 40.7725 7.476 42.6205 7.476C44.4445 7.476 46.2325 7.776 47.9845 8.376C49.7605 8.952 51.3565 9.792 52.7725 10.896L50.6845 13.776C47.9725 11.712 45.2245 10.68 42.4405 10.68C41.3365 10.68 40.3765 10.836 39.5605 11.148C38.7445 11.46 38.1085 11.904 37.6525 12.48C37.1965 13.032 36.9685 13.68 36.9685 14.424C36.9685 15.456 37.3165 16.248 38.0125 16.8C38.7085 17.328 39.8605 17.712 41.4685 17.952L45.5365 18.636C48.2005 19.068 50.1565 19.848 51.4045 20.976C52.6525 22.104 53.2765 23.652 53.2765 25.62C53.2765 27.156 52.8565 28.512 52.0165 29.688C51.1765 30.84 50.0005 31.74 48.4885 32.388C46.9765 33.036 45.2245 33.36 43.2325 33.36Z" fill="white"/>
<defs>
<linearGradient id="paint0_linear_1150_411" x1="0" y1="20" x2="59" y2="20" gradientUnits="userSpaceOnUse">
<stop stop-color="#2979FF"/>
<stop offset="1" stop-color="#4C589E"/>
</linearGradient>
</defs>
</svg>
