<svg width="120" height="44" viewBox="0 0 120 44" fill="none" xmlns="http://www.w3.org/2000/svg">
<g clip-path="url(#clip0_1147_478)">
<path d="M61.9537 17.2489L67.6628 16.9177C67.7931 17.7555 68.0318 18.379 68.4226 18.8271C69.0521 19.5285 69.9204 19.8792 71.0709 19.8792C71.9175 19.8792 72.5904 19.7038 73.0463 19.3337C73.4805 19.0414 73.741 18.5738 73.741 18.0867C73.741 17.6191 73.5022 17.171 73.0897 16.8787C72.6556 16.528 71.6353 16.1773 70.0289 15.8656C67.4023 15.3395 65.5137 14.6381 64.4067 13.7418C63.2996 12.904 62.67 11.6766 62.7135 10.3712C62.7135 9.47491 63.0174 8.57866 63.5818 7.83828C64.233 7.00048 65.123 6.33804 66.1867 5.96785C67.3372 5.51972 68.9436 5.28592 70.9624 5.28592C73.437 5.28592 75.3256 5.69508 76.6281 6.53287C77.9305 7.35119 78.712 8.67608 78.9508 10.4881L73.3068 10.7803C73.1548 10.001 72.8509 9.43594 72.3517 9.06575C71.8524 8.69556 71.2012 8.52021 70.3546 8.52021C69.6599 8.52021 69.1389 8.6566 68.7916 8.90988C68.466 9.14369 68.2489 9.49439 68.2706 9.88407C68.2706 10.1763 68.4443 10.4491 68.7048 10.6244C68.987 10.8583 69.6599 11.0726 70.7236 11.2674C73.3502 11.774 75.2171 12.2806 76.3676 12.8066C77.5181 13.3327 78.343 13.9756 78.8423 14.7355C79.3632 15.5149 79.6237 16.4111 79.602 17.3268C79.602 18.4179 79.2547 19.509 78.5601 20.4247C77.8437 21.3794 76.8451 22.1198 75.6729 22.5679C74.4356 23.055 72.8726 23.3083 71.0058 23.3083C67.7062 23.3083 65.4269 22.7433 64.1462 21.5938C62.8654 20.4442 62.1056 19.0024 61.9537 17.2489ZM1.36758 23.0161V5.59766H11.3748C13.22 5.59766 14.6527 5.73404 15.6295 6.0263C16.5847 6.29907 17.4313 6.8641 17.9957 7.62396C18.6252 8.46176 18.9291 9.43594 18.9074 10.4491C18.9725 12.1637 17.9957 13.8003 16.3242 14.6576C15.6729 14.9888 14.9566 15.2226 14.2185 15.3395C14.7612 15.4759 15.3039 15.7097 15.7815 15.9825C16.1505 16.2552 16.4544 16.567 16.7366 16.8982C17.0622 17.2294 17.3444 17.5996 17.5832 17.9893L20.492 23.0356H13.6758L10.4631 17.6775C10.0507 16.9956 9.70333 16.5475 9.37771 16.3332C8.94356 16.0604 8.42258 15.924 7.90159 15.924H7.38061V22.9966H1.36758V23.0161ZM7.38061 12.6508H9.9204C10.4631 12.6118 10.9841 12.5338 11.5051 12.4169C11.8958 12.3585 12.2431 12.1637 12.4819 11.8714C13.068 11.17 12.9812 10.1763 12.2648 9.57233C11.8741 9.28007 11.1143 9.1242 10.0289 9.1242H7.38061V12.6508ZM0 37.9406L5.70912 37.6093C5.83936 38.4471 6.07815 39.0706 6.46888 39.5187C7.0767 40.2202 7.96671 40.5903 9.11722 40.5903C9.96382 40.5903 10.6368 40.415 11.0926 40.0448C11.5268 39.7331 11.7873 39.2849 11.7873 38.7979C11.7873 38.3302 11.5485 37.8821 11.136 37.5899C10.7019 37.2392 9.68162 36.8884 8.05354 36.5767C5.42692 36.0506 3.53835 35.3492 2.43126 34.453C1.32417 33.6152 0.694645 32.3877 0.738061 31.0823C0.738061 30.1861 1.04197 29.2898 1.60637 28.5494C2.2576 27.7116 3.14761 27.0492 4.21129 26.679C5.36179 26.2309 6.96816 25.9971 8.98698 25.9971C11.4616 25.9971 13.3502 26.4062 14.6527 27.244C15.9551 28.0818 16.7149 29.3872 16.9537 31.1992L11.3097 31.4915C11.1577 30.7121 10.8538 30.1471 10.3546 29.7769C9.87699 29.4067 9.20405 29.2314 8.35745 29.2508C7.66281 29.2508 7.14182 29.3872 6.7945 29.66C6.44718 29.8938 6.25181 30.2445 6.27352 30.6342C6.27352 30.9264 6.44718 31.1992 6.70767 31.3746C6.98987 31.6084 7.66281 31.8227 8.72648 32.0175C11.3531 32.5241 13.22 33.0307 14.3705 33.5567C15.521 34.0828 16.3459 34.7258 16.8451 35.4856C17.3661 36.265 17.6266 37.1612 17.6266 38.0575C17.6266 39.1486 17.2576 40.2202 16.5847 41.1359C15.8683 42.0906 14.8698 42.831 13.6975 43.2791C12.4602 43.7662 10.8972 44.0195 9.03039 44.0195C5.73082 44.0195 3.45152 43.4544 2.17077 42.3049C0.890014 41.1359 0.173661 39.6941 0 37.9406H0Z" fill="black"/>
<path d="M28.8712 36.5767L34.1245 37.999C33.8423 39.1875 33.2562 40.3176 32.453 41.3112C31.7149 42.188 30.7381 42.8699 29.631 43.3181C28.5022 43.7662 27.0695 44 25.3329 44C23.2272 44 21.4906 43.7272 20.1664 43.1817C18.8206 42.6361 17.67 41.662 16.6932 40.2786C15.7164 38.8953 15.2388 37.1223 15.2388 34.9596C15.2388 32.076 16.0854 29.8548 17.8003 28.3156C19.5152 26.7764 21.9247 25.9971 25.0507 25.9971C27.5036 25.9971 29.4139 26.4452 30.8249 27.322C32.2142 28.2182 33.2562 29.5821 33.9508 31.4135L28.6541 32.4657C28.5239 32.0565 28.3285 31.6473 28.068 31.2966C27.7424 30.8875 27.33 30.5757 26.8307 30.3419C26.3314 30.1081 25.767 30.0107 25.2026 30.0107C23.835 30.0107 22.7931 30.4978 22.0767 31.4915C21.534 32.2124 21.2518 33.3619 21.2518 34.9206C21.2518 36.8495 21.5774 38.1744 22.2287 38.8953C22.8799 39.6162 23.7916 39.9669 24.9855 39.9669C26.136 39.9669 27.0043 39.6746 27.5904 39.1096C28.1766 38.5056 28.6107 37.6678 28.8712 36.5767ZM41.136 26.2893H47.1274V32.3877H53.6831V26.2893H59.7178V43.7077H53.6831V36.6546H47.1274V43.7077H41.136V26.2893Z" fill="black"/>
<path d="M58.8929 34.9985C58.8929 32.1539 59.7829 29.9328 61.5413 28.3546C63.2996 26.7764 65.7742 25.9776 68.9219 25.9776C72.1563 25.9776 74.631 26.7569 76.3893 28.3156C78.1476 29.8743 79.0159 32.0565 79.0159 34.8622C79.0159 36.9079 78.6252 38.5641 77.8654 39.8695C77.1274 41.1554 75.9769 42.2075 74.5659 42.9089C73.1114 43.6298 71.3097 44 69.1606 44C66.9682 44 65.1664 43.6883 63.7337 43.0648C62.2576 42.4023 61.042 41.3697 60.2388 40.1033C59.3488 38.7394 58.8929 37.0443 58.8929 34.9985ZM64.8842 35.018C64.8842 36.7716 65.2533 38.038 65.9696 38.8173C66.686 39.5772 67.6845 39.9669 68.9436 39.9669C70.2243 39.9669 71.2229 39.5967 71.9392 38.8368C72.6556 38.077 73.0029 36.7326 73.0029 34.7842C73.0029 33.1476 72.6339 31.9396 71.8958 31.1992C71.1578 30.4394 70.1592 30.0692 68.9002 30.0692C67.7931 30.0302 66.7294 30.4588 65.9913 31.2187C65.2533 31.9786 64.8842 33.245 64.8842 35.018ZM85.1592 34.9985C85.1592 32.1539 86.0492 29.9328 87.8075 28.3546C89.5659 26.7764 92.0405 25.9776 95.1881 25.9776C98.4226 25.9776 100.919 26.7569 102.656 28.3156C104.392 29.8743 105.282 32.0565 105.282 34.8622C105.282 36.9079 104.891 38.5641 104.132 39.8695C103.394 41.1554 102.243 42.2075 100.832 42.9089C99.3777 43.6298 97.576 44 95.4269 44C93.2345 44 91.4327 43.6883 90 43.0648C88.5239 42.4023 87.3083 41.3697 86.5051 40.1033C85.6151 38.7394 85.1592 37.0443 85.1592 34.9985ZM91.1505 35.018C91.1505 36.7716 91.5195 38.038 92.2359 38.8173C92.9523 39.5772 93.9508 39.9669 95.2099 39.9669C96.4906 39.9669 97.4892 39.5967 98.2055 38.8368C98.9219 38.077 99.2692 36.7326 99.2692 34.7842C99.2692 33.1476 98.9002 31.9396 98.1621 31.1992C97.424 30.4394 96.4255 30.0692 95.1664 30.0692C94.0593 30.0302 92.974 30.4588 92.2576 31.2187C91.5195 31.9786 91.1505 33.245 91.1505 35.018Z" fill="black"/>
<path d="M104.653 26.2893H110.644V39.4213H120V43.7077H104.631V26.2893H104.653Z" fill="black"/>
</g>
<path d="M99.4565 23.5076C105.488 19.4277 107.349 12.5117 103.611 8.06017C99.8736 3.60866 91.9538 3.3074 85.9219 7.38729C79.8899 11.4672 78.0298 18.3832 81.7673 22.8347C85.5048 27.2862 93.4245 27.5875 99.4565 23.5076Z" fill="black"/>
<path d="M86.5885 14.167L88.7592 12.8031L91.4293 16.2128C91.8851 16.7583 92.2324 17.3428 92.4929 17.9858C92.6449 18.4729 92.6015 18.9989 92.3844 19.4665C92.1022 20.0511 91.6463 20.5382 91.0385 20.8889C90.3222 21.337 89.7144 21.5903 89.1934 21.6682C88.6941 21.7461 88.1731 21.6682 87.6955 21.4734C87.1746 21.2396 86.7187 20.9083 86.3714 20.4797L88.2382 18.921C88.3902 19.1353 88.5856 19.3302 88.8026 19.486C88.9546 19.5835 89.1283 19.6419 89.3236 19.6419C89.4756 19.6419 89.6275 19.5835 89.7361 19.5055C89.9531 19.3886 90.1051 19.1548 90.0834 18.921C90.0183 18.5898 89.8663 18.2586 89.6275 18.0053L86.5885 14.167ZM93.1008 16.3297L95.0762 14.9269C95.2932 15.1607 95.5754 15.336 95.8793 15.4334C96.3135 15.5503 96.7694 15.4724 97.1384 15.2191C97.3989 15.0632 97.616 14.8489 97.7028 14.5761C97.833 14.2254 97.6159 13.8358 97.2252 13.7189C97.1601 13.6994 97.095 13.6799 97.0298 13.6799C96.7694 13.6604 96.3135 13.7578 95.6406 14.0111C94.5335 14.4203 93.6652 14.5761 93.0139 14.5177C92.3844 14.4592 91.7983 14.167 91.451 13.6799C91.1905 13.3487 91.0602 12.959 91.0385 12.5693C91.0385 12.1212 91.1688 11.6731 91.451 11.3029C91.8634 10.7768 92.3627 10.3287 92.9705 9.978C93.8822 9.41297 94.6854 9.1402 95.3801 9.1402C96.0747 9.1402 96.7259 9.43245 97.3337 10.0364L95.3801 11.4198C94.9893 10.9717 94.2513 10.8742 93.752 11.225L93.6869 11.2834C93.4698 11.4003 93.3178 11.5757 93.231 11.79C93.1659 11.9458 93.2093 12.1212 93.3178 12.2576C93.4047 12.355 93.5349 12.4329 93.6869 12.4329C93.8605 12.4524 94.1644 12.3745 94.5986 12.1991C95.684 11.79 96.5089 11.5562 97.0733 11.4782C97.5508 11.4003 98.0501 11.4393 98.506 11.6146C98.9184 11.7705 99.2657 12.0433 99.5045 12.3745C99.8084 12.7642 99.9821 13.2318 100.004 13.7189C100.026 14.2254 99.8736 14.7125 99.5696 15.1412C99.1789 15.6672 98.6796 16.1154 98.0935 16.4661C96.8996 17.2064 95.9227 17.5182 95.1413 17.4013C94.2947 17.2844 93.6 16.8947 93.1008 16.3297Z" fill="white"/>
<defs>
<clipPath id="clip0_1147_478">
<rect width="120" height="40" fill="white" transform="translate(0 4)"/>
</clipPath>
</defs>
</svg>
